<svg width="1727" height="1723" xmlns="http://www.w3.org/2000/svg" xmlns:xlink="http://www.w3.org/1999/xlink" xml:space="preserve" overflow="hidden"><defs><clipPath id="clip0"><rect x="1052" y="328" width="1727" height="1723"/></clipPath></defs><g clip-path="url(#clip0)" transform="translate(-1052 -328)"><rect x="1054" y="328" width="738" height="739" fill="#F8BC02"/><rect x="1054" y="1312" width="738" height="739" fill="#F8BC02"/><rect x="2041" y="1312" width="738" height="739" fill="#F8BC02"/><rect x="2039" y="328" width="738" height="739" fill="#F8BC02"/><rect x="1795" y="1067" width="245" height="245" fill="#F8BC02"/><rect x="1054" y="1312" width="738" height="739" fill="#F8BC02"/><rect x="2041" y="1312" width="738" height="739" fill="#F8BC02"/><rect x="2039" y="328" width="738" height="739" fill="#F8BC02"/><rect x="1052" y="328" width="248" height="739" fill="#01B3BF"/><rect x="1299" y="822" width="246" height="490" fill="#01B3BF"/><rect x="1544" y="328" width="248" height="739" fill="#01B3BF"/><rect x="1299" y="1312" width="246" height="739" fill="#01B3BF"/><rect x="2039" y="328" width="247" height="739" fill="#01B3BF"/><rect x="2286" y="328" width="246" height="984" fill="#01B3BF"/><rect x="2288" y="1312" width="246" height="739" fill="#01B3BF"/></g></svg>

